<mxfile host="app.diagrams.net" agent="Mozilla/5.0 (Windows NT 10.0; Win64; x64) AppleWebKit/537.36 (KHTML, like Gecko) Chrome/135.0.0.0 Safari/537.36" version="26.2.13">
  <diagram name="Сторінка-1" id="aWD3MYUs6PY6xLvXs6n8">
    <mxGraphModel dx="2068" dy="1137" grid="1" gridSize="10" guides="1" tooltips="1" connect="1" arrows="1" fold="1" page="1" pageScale="1" pageWidth="827" pageHeight="1169" math="0" shadow="0">
      <root>
        <mxCell id="0" />
        <mxCell id="1" parent="0" />
        <mxCell id="b2ETIqrCC-kc7FmVbEqZ-2" value="&lt;table border=&quot;1&quot; width=&quot;100%&quot; height=&quot;100%&quot; cellpadding=&quot;4&quot; style=&quot;width:100%;height:100%;border-collapse:collapse;&quot;&gt;&lt;tbody&gt;&lt;tr&gt;&lt;th align=&quot;center&quot;&gt;Field&lt;/th&gt;&lt;/tr&gt;&lt;tr&gt;&lt;td&gt;-value: str&lt;/td&gt;&lt;/tr&gt;&lt;tr&gt;&lt;td&gt;+ __init__(value)&lt;br&gt;+ __str__(): str&lt;/td&gt;&lt;/tr&gt;&lt;/tbody&gt;&lt;/table&gt;" style="text;html=1;whiteSpace=wrap;strokeColor=none;fillColor=none;overflow=fill;" vertex="1" parent="1">
          <mxGeometry x="40" y="200" width="180" height="180" as="geometry" />
        </mxCell>
        <mxCell id="b2ETIqrCC-kc7FmVbEqZ-3" value="&lt;table border=&quot;1&quot; width=&quot;100%&quot; height=&quot;100%&quot; cellpadding=&quot;4&quot; style=&quot;width:100%;height:100%;border-collapse:collapse;&quot;&gt;&lt;tbody&gt;&lt;tr&gt;&lt;th align=&quot;center&quot;&gt;Name&lt;br&gt;&lt;/th&gt;&lt;/tr&gt;&lt;tr&gt;&lt;td align=&quot;center&quot;&gt;&lt;br&gt;&lt;/td&gt;&lt;/tr&gt;&lt;tr&gt;&lt;td&gt;+&amp;nbsp; __init__(value)&lt;/td&gt;&lt;/tr&gt;&lt;/tbody&gt;&lt;/table&gt;" style="text;html=1;whiteSpace=wrap;strokeColor=none;fillColor=none;overflow=fill;" vertex="1" parent="1">
          <mxGeometry x="250" y="200" width="180" height="180" as="geometry" />
        </mxCell>
        <mxCell id="b2ETIqrCC-kc7FmVbEqZ-4" value="&lt;table border=&quot;1&quot; width=&quot;100%&quot; height=&quot;100%&quot; cellpadding=&quot;4&quot; style=&quot;width:100%;height:100%;border-collapse:collapse;&quot;&gt;&lt;tbody&gt;&lt;tr&gt;&lt;th align=&quot;center&quot;&gt;&lt;b&gt;Title&lt;/b&gt;&lt;/th&gt;&lt;/tr&gt;&lt;tr&gt;&lt;td align=&quot;center&quot;&gt;&lt;br&gt;&lt;/td&gt;&lt;/tr&gt;&lt;tr&gt;&lt;td&gt;+ __init__(value)&lt;/td&gt;&lt;/tr&gt;&lt;tr&gt;&lt;td&gt;+ validate()&lt;/td&gt;&lt;/tr&gt;&lt;/tbody&gt;&lt;/table&gt;" style="text;html=1;whiteSpace=wrap;strokeColor=none;fillColor=none;overflow=fill;" vertex="1" parent="1">
          <mxGeometry x="460" y="200" width="180" height="180" as="geometry" />
        </mxCell>
        <mxCell id="b2ETIqrCC-kc7FmVbEqZ-5" value="&lt;table border=&quot;1&quot; width=&quot;100%&quot; height=&quot;100%&quot; cellpadding=&quot;4&quot; style=&quot;width:100%;height:100%;border-collapse:collapse;&quot;&gt;&lt;tbody&gt;&lt;tr&gt;&lt;th align=&quot;center&quot;&gt;Birthday&lt;/th&gt;&lt;/tr&gt;&lt;tr&gt;&lt;td align=&quot;center&quot;&gt;&amp;nbsp;&lt;/td&gt;&lt;/tr&gt;&lt;tr&gt;&lt;td&gt;+ __init__(value)&lt;br&gt;+ validate()&lt;/td&gt;&lt;/tr&gt;&lt;/tbody&gt;&lt;/table&gt;" style="text;html=1;whiteSpace=wrap;strokeColor=none;fillColor=none;overflow=fill;" vertex="1" parent="1">
          <mxGeometry x="40" y="430" width="180" height="180" as="geometry" />
        </mxCell>
        <mxCell id="b2ETIqrCC-kc7FmVbEqZ-6" value="&lt;table border=&quot;1&quot; width=&quot;100%&quot; height=&quot;100%&quot; cellpadding=&quot;4&quot; style=&quot;width:100%;height:100%;border-collapse:collapse;&quot;&gt;&lt;tbody&gt;&lt;tr&gt;&lt;th align=&quot;center&quot;&gt;Record&lt;/th&gt;&lt;/tr&gt;&lt;tr&gt;&lt;td&gt;- name: Name&lt;br&gt;- phones: list&lt;br&gt;- email: str&lt;br&gt;- birthday:&lt;br&gt;&amp;nbsp; Birthday I None&lt;/td&gt;&lt;/tr&gt;&lt;tr&gt;&lt;td&gt;+ add_phone()&lt;br&gt;+ remove_phone()&lt;br&gt;+ edit_phone()&lt;br&gt;+ find_phone&lt;br&gt;+ add_birthday&lt;br&gt;+ __str__()&lt;/td&gt;&lt;/tr&gt;&lt;/tbody&gt;&lt;/table&gt;" style="text;html=1;whiteSpace=wrap;strokeColor=none;fillColor=none;overflow=fill;" vertex="1" parent="1">
          <mxGeometry x="250" y="430" width="180" height="210" as="geometry" />
        </mxCell>
        <mxCell id="b2ETIqrCC-kc7FmVbEqZ-7" value="&lt;table border=&quot;1&quot; width=&quot;100%&quot; height=&quot;100%&quot; cellpadding=&quot;4&quot; style=&quot;width:100%;height:100%;border-collapse:collapse;&quot;&gt;&lt;tbody&gt;&lt;tr&gt;&lt;th align=&quot;center&quot;&gt;&lt;b&gt;AddressBook&lt;/b&gt;&lt;/th&gt;&lt;/tr&gt;&lt;tr&gt;&lt;td&gt;- data: dict&lt;/td&gt;&lt;/tr&gt;&lt;tr&gt;&lt;td&gt;+ add_record( )&lt;br&gt;+ find()&lt;br&gt;+ delete()&lt;br&gt;+ save_to_file()&lt;br&gt;+ load_from_file&lt;br&gt;+ get_upcoming_birthdays()&lt;/td&gt;&lt;/tr&gt;&lt;/tbody&gt;&lt;/table&gt;" style="text;html=1;whiteSpace=wrap;strokeColor=none;fillColor=none;overflow=fill;" vertex="1" parent="1">
          <mxGeometry x="460" y="430" width="180" height="180" as="geometry" />
        </mxCell>
      </root>
    </mxGraphModel>
  </diagram>
</mxfile>
